<?xml version="1.0" standalone="yes"?>
<svg xmlns="http://www.w3.org/2000/svg" width="200" height="200">
<path style="fill:#e38569; stroke:none;" d="M0 0L0 200L200 200L200 0L0 0z"/>
<path style="fill:#262f32; stroke:none;" d="M74 55L70 59L75 66L80 59L74 55z"/>
<path style="fill:#a66857; stroke:none;" d="M73.3333 56.6667L73.6667 57.3333L73.3333 56.6667M76 57L77 58L76 57M115.667 57.3333L116.333 57.6667L115.667 57.3333z"/>
<path style="fill:#262f32; stroke:none;" d="M117 57.5972C103.513 60.0208 88.2136 57.192 78.7886 70.0147C61.7635 93.1771 81.7387 114.508 105 117.129C107.919 117.458 110.974 119.22 113.941 118.628C117.551 117.908 118.22 113.787 120.274 111.285C131.206 97.9726 133.072 88.0689 126.769 72C124.568 66.3883 126.882 55.8214 117 57.5972z"/>
<path style="fill:#a66857; stroke:none;" d="M121 57L122 58L121 57M72 58L73 59L72 58M77 58L78 59L77 58M99 58L99 59L105 59L99 58M69.3333 59.6667L69.6667 60.3333L69.3333 59.6667M74.6667 59.3333L75.3333 59.6667L74.6667 59.3333M94.6667 59.3333L95.3333 59.6667L94.6667 59.3333M108.667 59.3333L109.333 59.6667L108.667 59.3333M116 59L117 60L116 59z"/>
<path style="fill:#7bc7a8; stroke:none;" d="M117 59L117 60L120 60L117 59z"/>
<path style="fill:#a66857; stroke:none;" d="M120 59L121 60L120 59M124 59L125 60L124 59z"/>
<path style="fill:#f6f7f7; stroke:none;" d="M74 60L75 61L74 60z"/>
<path style="fill:#7bc7a8; stroke:none;" d="M75 60L76 61L75 60z"/>
<path style="fill:#a66857; stroke:none;" d="M80 60L81 61L80 60M91 60L92 61L91 60z"/>
<path style="fill:#7bc7a8; stroke:none;" d="M115 60L114 62L115 60z"/>
<path style="fill:#f6f7f7; stroke:none;" d="M116.231 61.0324C111.112 64.1174 115.647 71.8518 120.772 68.9529C126.297 65.8274 121.781 57.6884 116.231 61.0324z"/>
<path style="fill:#a66857; stroke:none;" d="M70.6667 61.3333L71.3333 61.6667L70.6667 61.3333M78.6667 61.3333L79.3333 61.6667L78.6667 61.3333M89 61L90 62L89 61M95 61L96 62L95 61z"/>
<path style="fill:#7bc7a8; stroke:none;" d="M89 64L89 65L100 65L100 66C89.6243 68.4702 81.0307 65.3771 77 78L97 78L97 80C90.8388 80 78.9243 77.5586 75 83L87 83L75 86L75 90L80 90L80 92L75 92C77.8971 104.487 84.8942 103 96 103L96 105L82 105C85.5505 110.477 98.0416 108 104 108L104 111L88 111L88 112C93.2459 113.402 100.301 116.756 105.741 114.397C108.257 113.306 109.394 110.465 112.054 109.549C116.631 107.974 119.316 110.097 122 105L100 105L100 103C112.583 103 125.548 106.88 129 92L115 92L115 90L129 90C128.955 74.4402 113.191 81.6643 102 79L102 78L127 78L124 71L104 66L104 65L111 65C108.729 57.2354 94.1961 61.6275 89 64z"/>
<path style="fill:#a66857; stroke:none;" d="M108 61L109 62L108 61M125 61L126 62L125 61M72 62L73 63L72 62M87 62L88 63L87 62M92 62L93 63L92 62M113 62L114 63L113 62z"/>
<path style="fill:#7bc7a8; stroke:none;" d="M123 62L124 63L123 62z"/>
<path style="fill:#a66857; stroke:none;" d="M73.3333 63.6667L73.6667 64.3333L73.3333 63.6667M76 63L77 64L76 63M85 63L86 64L85 63z"/>
<path style="fill:#7bc7a8; stroke:none;" d="M113 63L114 64L113 63z"/>
<path style="fill:#a66857; stroke:none;" d="M84 64L85 65L84 64M88 64L89 65L88 64M126.333 64.6667L126.667 65.3333L126.333 64.6667M131 64L130 67L131 67L131 64M75 65L76 66L75 65M99 65L100 66L99 65M104 65L105 66L104 65z"/>
<path style="fill:#262f32; stroke:none;" d="M131 65L131 67L133 65L131 65z"/>
<path style="fill:#7bc7a8; stroke:none;" d="M113 66L114 67L113 66M123 66L124 67L123 66z"/>
<path style="fill:#a66857; stroke:none;" d="M132 66L133 67L132 66M111 67L112 68L111 67M123 67L124 68L123 67M114 68L115 69L114 68M122 68L123 69L122 68M125 68L126 69L125 68M115 69L116 70L115 69M121 69L122 70L121 69M78 70L79 71L78 70M113 70L114 71L113 70M125 70L126 71L125 70M77 71L78 72L77 71z"/>
<path style="fill:#262f32; stroke:none;" d="M94 71L94 73L106 73L106 71L94 71z"/>
<path style="fill:#a66857; stroke:none;" d="M126 71L127 72L126 71M79 72L80 73L79 72M93 72L94 73L93 72M106 72L107 73L106 72M76 73L77 74L76 73M94 73L94 74L106 74L94 73M127 73L128 74L127 73M75 75L76 76L75 75M128 75L129 76L128 75M74 77L75 78L74 77M129 77L130 78L129 77M102 78L103 79L102 78M73.3333 80.6667L73.6667 81.3333L73.3333 80.6667M130.333 80.6667L130.667 81.3333L130.333 80.6667M75 81L76 82L75 81M128 81L129 82L128 81M86 83L87 84L86 83z"/>
<path style="fill:#262f32; stroke:none;" d="M95 83L95 85L108 85L95 83z"/>
<path style="fill:#a66857; stroke:none;" d="M94 84L95 85L94 84M72 85L72 91L73 91L72 85M75 85L75 86L86 86L75 85M95 85L95 86L107 86L95 85M131 85L131 91L132 91L131 85z"/>
<path style="fill:#262f32; stroke:none;" d="M86 90L86 92L109 91L86 90z"/>
<path style="fill:#a66857; stroke:none;" d="M108 91L109 92L108 91M115 91L116 92L115 91M73.3333 94.6667L73.6667 95.3333L73.3333 94.6667M75 94L76 95L75 94M128 94L129 95L128 94M130.333 94.6667L130.667 95.3333L130.333 94.6667M93 96L93 97L117 97L117 98L93 98L93 99L118 98C112.244 93.6391 100.051 96 93 96M76 97L77 98L76 97z"/>
<path style="fill:#262f32; stroke:none;" d="M92 97L92 98L117 98L92 97z"/>
<path style="fill:#a66857; stroke:none;" d="M127 97L128 98L127 97M74 98L75 99L74 98M129 98L130 99L129 98M75 100L76 101L75 100M128 100L129 101L128 100M78 101L79 102L78 101M125 101L126 102L125 101M76 102L77 103L76 102M127 102L128 103L127 102M95.3333 103.667L95.6667 104.333L95.3333 103.667M126 104L127 105L126 104M78 105L79 106L78 105M81 105L82 106L81 105M122 105L123 106L122 105M125 105L126 106L125 105M79 106L80 107L79 106M124 106L125 107L124 106M84 108L84 109L104 109L84 108M112.667 108.333L113.333 108.667L112.667 108.333M118 109L119 110L118 109M83 110L84 111L83 110M88.6667 110.333L89.3333 110.667L88.6667 110.333M91 110L91 111L102 111L91 110M103 110L104 111L103 110M112.667 110.333L113.333 110.667L112.667 110.333M120 110L121 111L120 110M84 111L85 112L84 111z"/>
<path style="fill:#f6f7f7; stroke:none;" d="M111.643 112.082C109.559 113.721 112.222 117.135 114.397 115.829C116.967 114.284 114.02 110.212 111.643 112.082z"/>
<path style="fill:#a66857; stroke:none;" d="M115 111L116 112L115 111M119 111L120 112L119 111M127 111L128 114L129 114L127 111M90 112L91 113L90 112M118 112L118 116L119 116L118 112z"/>
<path style="fill:#262f32; stroke:none;" d="M126 112L128 114L128 112L126 112z"/>
<path style="fill:#a66857; stroke:none;" d="M87 113L88 114L87 113M92 113L93 114L92 113M116.333 113.667L116.667 114.333L116.333 113.667M126 113L127 114L126 113M89 114L90 115L89 114M96 114L97 115L96 114M107 114L108 115L107 114M91.6667 115.333L92.3333 115.667L91.6667 115.333z"/>
<path style="fill:#7bc7a8; stroke:none;" d="M110 115L111 116L110 115z"/>
<path style="fill:#262f32; stroke:none;" d="M76 116L76 118L78 118L78 116L76 116z"/>
<path style="fill:#a66857; stroke:none;" d="M94.6667 116.333L95.3333 116.667L94.6667 116.333z"/>
<path style="fill:#7bc7a8; stroke:none;" d="M111 116L112 117L111 116z"/>
<path style="fill:#a66857; stroke:none;" d="M100 117L100 118L104 118L100 117M117 117L118 118L117 117M77 118L78 119L77 118M116 118L117 119L116 118M112 119L112 120L115 120L112 119M70 123L70 124L73 124L70 123M109 123L109 124L113 124L109 123M128 123L129 124L128 123M67 124L66 126L67 124z"/>
<path style="fill:#262f32; stroke:none;" d="M77 138L76 135C66.3838 136.474 66.7765 126.899 76 129C75.4851 117.825 55.0647 129.74 67.1335 138.257C68.5512 139.257 70.2445 139.749 71.9753 139.688C73.886 139.621 75.3272 138.8 77 138z"/>
<path style="fill:#a66857; stroke:none;" d="M75 124L76 125L75 124z"/>
<path style="fill:#262f32; stroke:none;" d="M84 124L78 140C83.1662 138.411 85.6678 134.871 90 140L92 140L87 124L84 124M95 124L95 140L98 140L98 124L95 124z"/>
<path style="fill:#a66857; stroke:none;" d="M98 124L98 140L99 140L98 124M107 124L106 126L107 124z"/>
<path style="fill:#262f32; stroke:none;" d="M112 137L106 135C107.613 140.108 116.407 141.993 116.623 135.011C116.741 131.211 111.756 129.888 110 127L115 128L116 127L116 125C101.316 120.711 110.606 131.745 112 137M119 124L119 140L122 140L122 134L130 140L131 139C128.191 132.656 128.191 131.344 131 125L127 124L122 130L122 124L119 124z"/>
<path style="fill:#a66857; stroke:none;" d="M122 124L122 130L123 130L122 124M130 124L131 125L130 124M132 124L132 139L133 139L132 124z"/>
<path style="fill:#262f32; stroke:none;" d="M133 124L133 140L136 140L136 124L133 124z"/>
<path style="fill:#a66857; stroke:none;" d="M136 124L136 139L137 139L136 124M76 125L77 126L76 125M83 125L84 126L83 125M87 125L88 126L87 125M94 125L93 139C96.2589 136.152 95.5804 128.766 94 125M118 125L118 139L119 139L118 125M126 125L127 126L126 125M116 126L117 127L116 126M125 126L126 127L125 126M64 127L65 128L64 127M71 127L72 128L71 127M76 127L77 128L76 127M82 127L83 128L82 127M88 127L89 128L88 127M110 127L110 128L113 128L110 127M115 127L116 128L115 127M124 127L125 128L124 127M73 128L74 129L73 128M105 128L106 129L105 128M113.667 128.333L114.333 128.667L113.667 128.333M63 129L64 130L63 129M81 129L82 130L81 129M89 129L90 130L89 129M110 129L111 130L110 129M67 130L68 131L67 130M113.667 130.333L114.333 130.667L113.667 130.333M80 131L81 132L80 131z"/>
<path style="fill:#e38569; stroke:none;" d="M85.3333 131.667L85.6667 132.333L85.3333 131.667z"/>
<path style="fill:#a66857; stroke:none;" d="M90 131L91 132L90 131M106 131L107 132L106 131M84 132L85 133L84 132M86 132L87 133L86 132M63.3333 133.667L63.6667 134.333L63.3333 133.667M67 133L68 134L67 133M79 133L80 134L79 133M91 133L92 134L91 133M110.667 133.333L111.333 133.667L110.667 133.333M127 133L128 134L127 133M107.667 134.333L108.333 134.667L107.667 134.333M122 134L122 139L123 139L122 134M128 134L129 135L128 134M69 135L70 136L69 135M73 135L74 136L73 135M78 135L79 136L78 135M92 135L93 136L92 135M109 135L110 136L109 135M64 136L65 137L64 136M76 136L77 137L76 136M83 136L83 137L88 137L83 136M105 136L106 137L105 136M111 136L112 137L111 136M124 136L125 137L124 136M65 137L66 138L65 137M77 137L76 139L78 139L77 137M116 137L117 138L116 137M125 137L126 138L125 137M66 138L67 139L66 138M81 138L82 139L81 138M89 138L90 139L89 138M106 138L107 139L106 138M126 138L127 139L126 138M68 139L69 140L68 139M74 139L75 140L74 139M92 139L93 140L92 139M108 139L109 140L108 139M114 139L115 140L114 139M127 139L128 140L127 139M71 140L72 141L71 140M111 140L112 141L111 140z"/>
</svg>
